<mxfile host="Electron" modified="2023-12-28T12:51:32.272Z" agent="Mozilla/5.0 (Windows NT 10.0; Win64; x64) AppleWebKit/537.36 (KHTML, like Gecko) draw.io/22.1.11 Chrome/114.0.5735.289 Electron/25.9.8 Safari/537.36" etag="P3Wr9jvKNfwdG6XNbdNs" version="22.1.11" type="device">
  <diagram name="第 1 页" id="XC8egyNm3fMzCqgQWuI4">
    <mxGraphModel dx="1434" dy="844" grid="1" gridSize="10" guides="1" tooltips="1" connect="1" arrows="1" fold="1" page="1" pageScale="1" pageWidth="827" pageHeight="1169" math="0" shadow="0">
      <root>
        <mxCell id="0" />
        <mxCell id="1" parent="0" />
        <mxCell id="N2o40ywln0JMurGnZqwR-1" style="edgeStyle=orthogonalEdgeStyle;rounded=0;orthogonalLoop=1;jettySize=auto;html=1;exitX=1;exitY=0.5;exitDx=0;exitDy=0;" edge="1" parent="1" source="N2o40ywln0JMurGnZqwR-3" target="N2o40ywln0JMurGnZqwR-5">
          <mxGeometry relative="1" as="geometry" />
        </mxCell>
        <mxCell id="N2o40ywln0JMurGnZqwR-2" value="+SetNowStageLevel&lt;br&gt;" style="edgeLabel;html=1;align=center;verticalAlign=middle;resizable=0;points=[];" vertex="1" connectable="0" parent="N2o40ywln0JMurGnZqwR-1">
          <mxGeometry x="-0.0189" relative="1" as="geometry">
            <mxPoint as="offset" />
          </mxGeometry>
        </mxCell>
        <mxCell id="N2o40ywln0JMurGnZqwR-3" value="NewStageObserverUI" style="swimlane;fontStyle=1;align=center;verticalAlign=top;childLayout=stackLayout;horizontal=1;startSize=26;horizontalStack=0;resizeParent=1;resizeParentMax=0;resizeLast=0;collapsible=1;marginBottom=0;whiteSpace=wrap;html=1;" vertex="1" parent="1">
          <mxGeometry x="280" y="400" width="214" height="34" as="geometry" />
        </mxCell>
        <mxCell id="N2o40ywln0JMurGnZqwR-4" value="" style="line;strokeWidth=1;fillColor=none;align=left;verticalAlign=middle;spacingTop=-1;spacingLeft=3;spacingRight=3;rotatable=0;labelPosition=right;points=[];portConstraint=eastwest;strokeColor=inherit;" vertex="1" parent="N2o40ywln0JMurGnZqwR-3">
          <mxGeometry y="26" width="214" height="8" as="geometry" />
        </mxCell>
        <mxCell id="N2o40ywln0JMurGnZqwR-5" value="AchievementSystem" style="swimlane;fontStyle=1;align=center;verticalAlign=top;childLayout=stackLayout;horizontal=1;startSize=26;horizontalStack=0;resizeParent=1;resizeParentMax=0;resizeLast=0;collapsible=1;marginBottom=0;whiteSpace=wrap;html=1;" vertex="1" parent="1">
          <mxGeometry x="630" y="400" width="160" height="34" as="geometry" />
        </mxCell>
        <mxCell id="N2o40ywln0JMurGnZqwR-6" value="" style="line;strokeWidth=1;fillColor=none;align=left;verticalAlign=middle;spacingTop=-1;spacingLeft=3;spacingRight=3;rotatable=0;labelPosition=right;points=[];portConstraint=eastwest;strokeColor=inherit;" vertex="1" parent="N2o40ywln0JMurGnZqwR-5">
          <mxGeometry y="26" width="160" height="8" as="geometry" />
        </mxCell>
        <mxCell id="N2o40ywln0JMurGnZqwR-7" style="rounded=0;orthogonalLoop=1;jettySize=auto;html=1;exitX=1;exitY=0.5;exitDx=0;exitDy=0;entryX=0;entryY=0.5;entryDx=0;entryDy=0;" edge="1" parent="1" source="N2o40ywln0JMurGnZqwR-8" target="N2o40ywln0JMurGnZqwR-3">
          <mxGeometry relative="1" as="geometry" />
        </mxCell>
        <mxCell id="N2o40ywln0JMurGnZqwR-8" value="NewStageSubject" style="swimlane;fontStyle=1;align=center;verticalAlign=top;childLayout=stackLayout;horizontal=1;startSize=26;horizontalStack=0;resizeParent=1;resizeParentMax=0;resizeLast=0;collapsible=1;marginBottom=0;whiteSpace=wrap;html=1;" vertex="1" parent="1">
          <mxGeometry x="80" y="400" width="160" height="34" as="geometry" />
        </mxCell>
        <mxCell id="N2o40ywln0JMurGnZqwR-9" value="" style="line;strokeWidth=1;fillColor=none;align=left;verticalAlign=middle;spacingTop=-1;spacingLeft=3;spacingRight=3;rotatable=0;labelPosition=right;points=[];portConstraint=eastwest;strokeColor=inherit;" vertex="1" parent="N2o40ywln0JMurGnZqwR-8">
          <mxGeometry y="26" width="160" height="8" as="geometry" />
        </mxCell>
      </root>
    </mxGraphModel>
  </diagram>
</mxfile>
